<svg width="20" height="20" viewBox="0 0 20 20" fill="none" xmlns="http://www.w3.org/2000/svg">
<rect x="1" y="1" width="18" height="18" rx="7" fill="#5E6DEC"/>
<rect x="1" y="1" width="18" height="18" rx="7" stroke="#5E6DEC" stroke-width="2"/>
<mask id="path-2-inside-1_521_3891" fill="white">
<path d="M7.98197 14.4267C7.78671 14.2315 7.78671 13.9149 7.98197 13.7196L15.0551 6.64645C15.2504 6.45118 15.567 6.45118 15.7622 6.64645C15.9575 6.84171 15.9575 7.15829 15.7622 7.35355L8.68908 14.4267C8.49382 14.622 8.17723 14.622 7.98197 14.4267Z"/>
<path d="M4.14645 9.89303C4.34171 9.69777 4.65829 9.69777 4.85355 9.89303L8.67992 13.7194C8.87518 13.9147 8.87518 14.2312 8.67992 14.4265C8.48465 14.6218 8.16807 14.6218 7.97281 14.4265L4.14645 10.6001C3.95118 10.4049 3.95118 10.0883 4.14645 9.89303Z"/>
</mask>
<path d="M8.68908 14.4267L9.39619 15.1338L8.68908 14.4267ZM15.7622 7.35355L15.0551 6.64645L15.7622 7.35355ZM15.0551 6.64645L14.348 5.93934L15.0551 6.64645ZM7.98197 13.7196L8.68908 14.4267L7.98197 13.7196ZM4.14645 10.6001L3.43934 11.3072H3.43934L4.14645 10.6001ZM7.97281 14.4265L8.67992 13.7194V13.7194L7.97281 14.4265ZM8.67992 13.7194L9.38702 13.0123V13.0123L8.67992 13.7194ZM4.85355 9.89303L4.14645 10.6001H4.14645L4.85355 9.89303ZM8.68908 14.4267L15.7622 7.35355L14.348 5.93934L7.27486 13.0125L8.68908 14.4267ZM15.0551 6.64645L7.98197 13.7196L9.39619 15.1338L16.4694 8.06066L15.0551 6.64645ZM7.98197 13.7196C8.17723 13.5244 8.49381 13.5244 8.68908 13.7196L7.27486 15.1338C7.86065 15.7196 8.8104 15.7196 9.39619 15.1338L7.98197 13.7196ZM15.0551 7.35355C14.8599 7.15829 14.8599 6.84171 15.0551 6.64645L16.4694 8.06066C17.0551 7.47487 17.0551 6.52513 16.4694 5.93934L15.0551 7.35355ZM15.7622 7.35355C15.567 7.54881 15.2504 7.54882 15.0551 7.35355L16.4694 5.93934C15.8836 5.35355 14.9338 5.35355 14.348 5.93934L15.7622 7.35355ZM7.27486 13.0125C6.68908 13.5983 6.68908 14.548 7.27486 15.1338L8.68908 13.7196C8.88434 13.9149 8.88434 14.2315 8.68908 14.4267L7.27486 13.0125ZM4.14645 10.6001L7.97281 14.4265L9.38702 13.0123L5.56066 9.18592L4.14645 10.6001ZM8.67992 13.7194L4.85355 9.89303L3.43934 11.3072L7.2657 15.1336L8.67992 13.7194ZM4.85355 9.89303C5.04882 10.0883 5.04882 10.4049 4.85355 10.6001L3.43934 9.18592C2.85355 9.77171 2.85355 10.7215 3.43934 11.3072L4.85355 9.89303ZM7.97281 13.7194C8.16807 13.5241 8.48465 13.5241 8.67992 13.7194L7.2657 15.1336C7.85149 15.7194 8.80124 15.7194 9.38702 15.1336L7.97281 13.7194ZM7.97281 14.4265C7.77755 14.2312 7.77755 13.9147 7.97281 13.7194L9.38702 15.1336C9.97281 14.5478 9.97281 13.5981 9.38702 13.0123L7.97281 14.4265ZM5.56066 9.18592C4.97487 8.60014 4.02513 8.60014 3.43934 9.18592L4.85355 10.6001C4.65829 10.7954 4.34171 10.7954 4.14645 10.6001L5.56066 9.18592Z" fill="#F9F9F9" mask="url(#path-2-inside-1_521_3891)"/>
</svg>
